<svg xmlns="http://www.w3.org/2000/svg" xmlns:xlink="http://www.w3.org/1999/xlink" width="180.107" height="134" viewBox="0 0 180.107 134">
  <defs>
    <linearGradient id="linear-gradient" x1="0.5" y1="1" x2="0.5" gradientUnits="objectBoundingBox">
      <stop offset="0" stop-color="gray" stop-opacity="0.251"/>
      <stop offset="0.54" stop-color="gray" stop-opacity="0.122"/>
      <stop offset="1" stop-color="gray" stop-opacity="0.102"/>
    </linearGradient>
    <linearGradient id="linear-gradient-2" y2="0" xlink:href="#linear-gradient"/>
  </defs>
  <g id="undraw_time_management_30iu" transform="translate(-0.007 -0.005)">
    <path id="Caminho_150" data-name="Caminho 150" d="M99.191,77.281a5.693,5.693,0,0,0-2.886,2.108,6.2,6.2,0,0,0-.453,3.756c1.058,11.091,3.845,22.886-.968,32.932-2.336,4.874-6.243,8.779-9.351,13.206s-5.454,9.952-4.011,15.159c1.762,6.362,8.338,9.89,12.771,14.786,2.9,3.2,4.936,7.091,7.643,10.459s6.417,6.335,10.738,6.533c6.216.286,11.273-5.084,17.367-6.328,6.243-1.274,12.53,1.968,17.592,5.847s9.667,8.58,15.565,11c6.514,2.677,13.857,2.268,20.714,3.876,6.243,1.466,11.991,4.584,18.189,6.246s13.463,1.562,18.265-2.684c6.259-5.552,5.766-15.442,9.764-22.787,3.713-6.824,10.981-10.9,15.874-16.931,8.8-10.858,8.515-27.454,1.041-39.263S226.031,96.24,212.186,94.378c-6.243-.838-12.672-.724-18.674-2.63-16.066-5.1-25.627-23.378-42.029-27.182-10.426-2.413-20.566,1.766-29.447,6.911C114.326,75.943,107.214,73.951,99.191,77.281Z" transform="translate(-81.08 -63.86)" fill="#3b67f2" opacity="0.1"/>
    <path id="Caminho_151" data-name="Caminho 151" d="M169.194,347.69s-5.929,5.6-12.292,5.762a12.35,12.35,0,0,0-7.36,2.618,20.774,20.774,0,0,0-2.752,2.618" transform="translate(-135.369 -298.445)" fill="none" stroke="#535461" stroke-miterlimit="10" stroke-width="2"/>
    <path id="Caminho_152" data-name="Caminho 152" d="M118.683,410.65c.855-.434,4.117-.146,4.117-.146s-1.692,2.806-2.547,3.24a1.737,1.737,0,1,1-1.563-3.094Z" transform="translate(-111.275 -350.279)" fill="#3b67f2"/>
    <path id="Caminho_153" data-name="Caminho 153" d="M134.7,383.225c.954.1,3.535,2.116,3.535,2.116s-2.953,1.435-3.9,1.336a1.737,1.737,0,0,1,.363-3.452Z" transform="translate(-123.862 -327.808)" fill="#3b67f2"/>
    <path id="Caminho_154" data-name="Caminho 154" d="M177.495,358.842c.771.568,1.984,3.612,1.984,3.612s-3.268-.248-4.039-.815a1.737,1.737,0,0,1,2.055-2.8Z" transform="translate(-158.508 -307.418)" fill="#3b67f2"/>
    <path id="Caminho_155" data-name="Caminho 155" d="M217.387,349.742c.856.429,2.566,3.224,2.566,3.224s-3.262.307-4.119-.122a1.737,1.737,0,1,1,1.553-3.1Z" transform="translate(-191.558 -299.95)" fill="#3b67f2"/>
    <path id="Caminho_156" data-name="Caminho 156" d="M158,394.2c.285-.915-.549-4.084-.549-4.084s-2.481,2.14-2.766,3.056A1.737,1.737,0,1,0,158,394.2Z" transform="translate(-141.805 -333.511)" fill="#3b67f2"/>
    <path id="Caminho_157" data-name="Caminho 157" d="M203.681,384.251c0-.959-1.746-3.731-1.746-3.731s-1.727,2.779-1.725,3.742a1.737,1.737,0,1,0,3.474-.01Z" transform="translate(-179.509 -325.576)" fill="#3b67f2"/>
    <path id="Caminho_158" data-name="Caminho 158" d="M246.942,365.743c.16-.945-1.091-3.973-1.091-3.973s-2.173,2.453-2.331,3.4a1.737,1.737,0,0,0,3.422.577Z" transform="translate(-215.285 -310.079)" fill="#3b67f2"/>
    <path id="Caminho_159" data-name="Caminho 159" d="M237.531,177.068s-7.142-3.923-9.264-9.931a12.35,12.35,0,0,0-4.755-6.2,20.772,20.772,0,0,0-3.342-1.807" transform="translate(-196.002 -142.576)" fill="none" stroke="#535461" stroke-miterlimit="10" stroke-width="2"/>
    <path id="Caminho_160" data-name="Caminho 160" d="M198.539,135.222c.676.679,1.4,3.874,1.4,3.874s-3.189-.747-3.865-1.428a1.737,1.737,0,0,1,2.462-2.446Z" transform="translate(-175.726 -122.447)" fill="#3b67f2"/>
    <path id="Caminho_161" data-name="Caminho 161" d="M229.211,140.474c.2.938-.926,4.015-.926,4.015s-2.27-2.361-2.469-3.3a1.737,1.737,0,1,1,3.4-.716Z" transform="translate(-200.622 -125.956)" fill="#3b67f2"/>
    <path id="Caminho_162" data-name="Caminho 162" d="M265.927,174.12c-.3.909-2.826,3-2.826,3s-.768-3.184-.466-4.095a1.739,1.739,0,0,1,3.3,1.1Z" transform="translate(-231.031 -153.072)" fill="#3b67f2"/>
    <path id="Caminho_163" data-name="Caminho 163" d="M286.628,209.644c-.144.947-2.279,3.433-2.279,3.433s-1.3-3.009-1.152-3.956a1.737,1.737,0,1,1,3.431.521Z" transform="translate(-248.128 -182.626)" fill="#3b67f2"/>
    <path id="Caminho_164" data-name="Caminho 164" d="M217.8,169.561c.959-.01,3.718-1.779,3.718-1.779s-2.8-1.7-3.758-1.692a1.737,1.737,0,0,0,.04,3.474Z" transform="translate(-192.593 -148.327)" fill="#3b67f2"/>
    <path id="Caminho_165" data-name="Caminho 165" d="M240.2,210.2c.91-.3,3.014-2.809,3.014-2.809s-3.181-.787-4.091-.49a1.737,1.737,0,1,0,1.077,3.3Z" transform="translate(-210.622 -182.024)" fill="#3b67f2"/>
    <path id="Caminho_166" data-name="Caminho 166" d="M271.316,245.494c.948-.139,3.447-2.258,3.447-2.258s-3-1.313-3.949-1.174a1.737,1.737,0,1,0,.5,3.434Z" transform="translate(-236.614 -211.131)" fill="#3b67f2"/>
    <ellipse id="Elipse_7" data-name="Elipse 7" cx="62.886" cy="62.804" rx="62.886" ry="62.804" transform="translate(27.501 3.897)" fill="url(#linear-gradient)"/>
    <ellipse id="Elipse_8" data-name="Elipse 8" cx="61.843" cy="61.762" rx="61.843" ry="61.762" transform="translate(28.685 4.939)" fill="#3b67f2"/>
    <ellipse id="Elipse_9" data-name="Elipse 9" cx="49.162" cy="49.081" rx="49.162" ry="49.081" transform="translate(41.367 17.62)" fill="#dde1ec"/>
    <rect id="Retângulo_45" data-name="Retângulo 45" width="2.779" height="43.429" transform="translate(89.141 26.259)" fill="#535461" opacity="0.3"/>
    <g id="Grupo_26" data-name="Grupo 26" transform="translate(64.132 52.666)" opacity="0.1">
      <rect id="Retângulo_46" data-name="Retângulo 46" width="39.26" height="3.474" transform="translate(29.33 12.999)"/>
      <rect id="Retângulo_47" data-name="Retângulo 47" width="3.474" height="27.885" transform="translate(0 3.078) rotate(-62.36)"/>
      <circle id="Elipse_10" data-name="Elipse 10" cx="5.212" cy="5.212" r="5.212" transform="translate(21.166 9.524)"/>
    </g>
    <rect id="Retângulo_48" data-name="Retângulo 48" width="39.26" height="3.474" transform="translate(93.437 64.964)" fill="#535461"/>
    <rect id="Retângulo_49" data-name="Retângulo 49" width="27.885" height="3.474" transform="translate(65.802 51.979) rotate(27.64)" fill="#535461"/>
    <circle id="Elipse_11" data-name="Elipse 11" cx="5.212" cy="5.212" r="5.212" transform="translate(85.319 61.49)" fill="#535461"/>
    <g id="Grupo_27" data-name="Grupo 27" transform="translate(41.374 17.62)" opacity="0.1">
      <path id="Caminho_167" data-name="Caminho 167" d="M323.822,220.338a49.166,49.166,0,0,1,88.45-29.56,49.167,49.167,0,1,0-82.392,53.213A48.938,48.938,0,0,1,323.822,220.338Z" transform="translate(-320 -165.27)"/>
    </g>
    <path id="Caminho_168" data-name="Caminho 168" d="M672.334,189.827c-.584-.561-5.5,3.127-5.5,3.127s-1.749.32-1.332,1.52-1.833,7.923-1.833,7.923l-.915-1.28a5.5,5.5,0,0,0-.728-3.231c-.033-.054-.066-.106-.1-.155l.16-.056c-.061-.82-1.372-2.069-2.069-2.68v-.264c.043-.98.436-2.013,0-2.9-.493-1.013-1.937-1.522-2.059-2.634-.073-.664.375-1.263.573-1.9.472-1.529-.509-3.089-1.447-4.405a6.161,6.161,0,0,0-1.148-1.324,5.572,5.572,0,0,0-1.379-.737,35.273,35.273,0,0,0-4.2-1.216,6.685,6.685,0,0,0-4-.08,1.965,1.965,0,0,0-.869.5,5.378,5.378,0,0,0-.587,1.332,4.749,4.749,0,0,1-1.758,1.583,2.526,2.526,0,0,0-1.329,1.857c0,1.11,1.268,1.808,1.692,2.842a5.206,5.206,0,0,1-.221,3.049,2.048,2.048,0,0,0-.026,1.006,2.162,2.162,0,0,0,.389.678c.262.347.544.671.823,1l-.129.05c-2.331-.24-3.83,2.72-3.83,2.72.108.023.21.049.311.078l-.1.129a12.637,12.637,0,0,0-1.711,2.993l-1.911,2.561s-.417-6.4.584-7.843-.916-2.321-.916-2.321-4.169-4.642-4.748-4.242,1.416,5.443,3.165,6.243a7.689,7.689,0,0,1-.174,2.641c-.21.658-1.332,7.6-1.332,7.6s-1,5.842,3.582,2.953a17.53,17.53,0,0,0,5.879-7.122q.1-.214.193-.408a4.882,4.882,0,0,1,.092.651l.174,6.693a10.16,10.16,0,0,1-1.053,4.781l-2.041,4.14.228.069-.137.2c-1.345,1.979-3.631,6.428,1.075,8.695l6.254.8-.334,1.6a43.01,43.01,0,0,0-3.332,8.243,24.7,24.7,0,0,1-2.166,5.922l.193.1c-.04.045-.082.092-.122.141a3.019,3.019,0,0,0-.723,1.515l-.848,1.2s-.334,4.961.334,6.163c.365.657,1.576,1.074,2.606,1.317a1.716,1.716,0,0,0,1.951-2.517l-.01-.017h-.016a17.055,17.055,0,0,1-.532-4.266c.049-.271.094-.54.116-.815a2.881,2.881,0,0,1,.323-1.03c.028-.054.057-.106.087-.158l.09.038c.28.12.556.233.818.332-.406.37-.695,1.136-.347,2.712a27.147,27.147,0,0,0,.334,4.562c.3.62,3.664,1.44,4.247.8s-.375-2.842-.375-2.842l-.03.021c-.193-1.277-.431-3.563.155-4.463.236-.363.466-.738.671-1.089l.127-.217h0c1.088.542,2.237.95,2.866.667,0,0,2.748-6.4,2.581-7.2s4.247-9.845,4.247-9.845,3.747-4.169-.832-7.042c-1.454-.915-2.514-1.53-3.283-1.946l-.644-3.37a12.321,12.321,0,0,1,.174-5.326l.695-2.651h0l.057-.226s1.749-3.6,1.666-5.283a1.217,1.217,0,0,1,.043-.387q.029.12.063.25a32.294,32.294,0,0,0,1.81,5.1c1.329,3,3.3,2.76,4.381,2.335a1.5,1.5,0,0,0,.922-1.081c.389-1.866,1.458-7.093,1.525-8.536a24.281,24.281,0,0,1,.417-3.361C670.586,193.189,672.918,190.389,672.334,189.827Z" transform="translate(-536.432 -159.21)" fill="url(#linear-gradient-2)"/>
    <path id="Caminho_169" data-name="Caminho 169" d="M721.9,531.154s-.367.735-.869,1.617c-.2.347-.415.721-.639,1.081-.794,1.27,0,5.316,0,5.316l-1.737.238-1.737-.869L716.6,535.6v-2.147l1.98-2.215.869-.959Z" transform="translate(-606.376 -449.356)" fill="#f8bdc5"/>
    <g id="Grupo_28" data-name="Grupo 28" transform="translate(112.2 80.929)" opacity="0.1">
      <path id="Caminho_170" data-name="Caminho 170" d="M731.3,531.154s-.367.735-.869,1.617a21.518,21.518,0,0,1-2.22-1.365l-.153-.108-.082-.059.869-.959Z" transform="translate(-727.98 -530.28)"/>
    </g>
    <path id="Caminho_171" data-name="Caminho 171" d="M728.807,396.273s-4.206,8.966-4.046,9.759-2.46,7.142-2.46,7.142c-.6.281-1.7-.123-2.731-.66a21.42,21.42,0,0,1-2.258-1.39l-.153-.108-.092-.066,6.9-19.123-6.108-4.48-.452-.332L714.68,385l8.338,1.508s.29-.036,1.824.822c.737.412,1.76,1.028,3.174,1.956C732.375,392.147,728.807,396.273,728.807,396.273Z" transform="translate(-604.8 -329.294)" fill="#5e52ad"/>
    <g id="Grupo_29" data-name="Grupo 29" transform="translate(109.88 55.706)" opacity="0.03">
      <path id="Caminho_172" data-name="Caminho 172" d="M728.807,396.273s-4.206,8.966-4.046,9.759-2.46,7.142-2.46,7.142c-.6.281-1.7-.123-2.731-.66a21.42,21.42,0,0,1-2.258-1.39l-.153-.108-.092-.066,6.9-19.123-6.108-4.48-.452-.332L714.68,385l8.338,1.508s.29-.036,1.824.822c.737.412,1.76,1.028,3.174,1.956C732.375,392.147,728.807,396.273,728.807,396.273Z" transform="translate(-714.68 -385)"/>
    </g>
    <path id="Caminho_173" data-name="Caminho 173" d="M715.321,544.4s-2.064-.318-1.348,3.016a27.841,27.841,0,0,0,.318,4.517c.287.608,3.492,1.428,4.046.794s-.358-2.816-.358-2.816-2.34,1.706-2.976-.12S715.321,544.4,715.321,544.4Z" transform="translate(-604.079 -461.02)" fill="#5d3e53"/>
    <path id="Caminho_174" data-name="Caminho 174" d="M691.58,533.254a2.5,2.5,0,0,0-.54.75,2.938,2.938,0,0,0-.307,1.021c-.021.271-.064.54-.109.808a19.575,19.575,0,0,0,.561,4.482l-3.016.476-1.11-1.19-.238-2.618a9.484,9.484,0,0,0,.476-2.779,2.912,2.912,0,0,1,.695-1.737,4.773,4.773,0,0,1,.8-.8S692.216,532.7,691.58,533.254Z" transform="translate(-581.76 -450.505)" fill="#f8bdc5"/>
    <g id="Grupo_30" data-name="Grupo 30" transform="translate(106.237 81.167)" opacity="0.1">
      <path id="Caminho_175" data-name="Caminho 175" d="M697.182,533.238a2.5,2.5,0,0,0-.54.75c-1.235-.558-2.533-1.261-3.005-1.522l-.036-.019a4.78,4.78,0,0,1,.8-.8S697.818,532.682,697.182,533.238Z" transform="translate(-693.6 -531.65)"/>
    </g>
    <path id="Caminho_176" data-name="Caminho 176" d="M691.92,393.893s-1.982,3.73-3.254,6.824c-.834,2.033-2.557,6.872-3.648,9.954l-.16.455c-.479,1.364-.8,2.286-.8,2.286a2.066,2.066,0,0,1-.624-.092c-.188-.05-.4-.118-.622-.2l-.252-.1c-.25-.1-.521-.21-.78-.328-1.261-.563-2.606-1.3-3.094-1.563l-.184-.1a25.1,25.1,0,0,0,2.069-5.877,43.421,43.421,0,0,1,3.174-8.165l.318-1.588-5.952-.794c-4.484-2.241-2.305-6.659-1.025-8.62a11.589,11.589,0,0,1,.707-.985l4.762,1.042s.75.24,2.418.978l.766.347c.935.429,2.085.982,3.474,1.69C693.9,391.427,691.92,393.893,691.92,393.893Z" transform="translate(-572.348 -329.294)" fill="#5e52ad"/>
    <path id="Caminho_177" data-name="Caminho 177" d="M689.259,550.811a1.685,1.685,0,0,1-1.859,2.495A4.078,4.078,0,0,1,684.923,552c-.634-1.19-.318-6.11-.318-6.11l.834-1.23s-.436,5.436.6,5.906a8.224,8.224,0,0,0,3.214.221Z" transform="translate(-579.865 -461.241)" fill="#5d3e53"/>
    <path id="Caminho_178" data-name="Caminho 178" d="M696.014,181.573a1.856,1.856,0,0,0-.834.5,5.719,5.719,0,0,0-.559,1.322,4.554,4.554,0,0,1-1.675,1.563,2.489,2.489,0,0,0-1.266,1.841c0,1.1,1.216,1.793,1.612,2.816a5.363,5.363,0,0,1-.21,3.023,2.11,2.11,0,0,0-.024,1,2.165,2.165,0,0,0,.372.672,17.179,17.179,0,0,1,2.231,3.153,9.762,9.762,0,0,1,.6,2.875,14.445,14.445,0,0,1,.028,4.23.428.428,0,0,0,0,.255.4.4,0,0,0,.2.174,4.169,4.169,0,0,0,5.644-2.085c.347-.787.481-1.737,1.169-2.248a.585.585,0,0,1,.28-.127.818.818,0,0,1,.452.151,4.448,4.448,0,0,0,2.971.3,2.761,2.761,0,0,0,1.614-.8c.784-.931.347-2.323.4-3.537.042-.971.415-2,0-2.875-.469-1-1.847-1.508-1.961-2.606a5.073,5.073,0,0,1,.547-1.885c.45-1.517-.485-3.063-1.378-4.367a6.044,6.044,0,0,0-1.093-1.312,5.244,5.244,0,0,0-1.313-.73,32.1,32.1,0,0,0-4-1.2A6.048,6.048,0,0,0,696.014,181.573Z" transform="translate(-585.791 -160.927)" fill="#85555c"/>
    <path id="Caminho_179" data-name="Caminho 179" d="M729.824,247.2h-4.6v-7.459a13.913,13.913,0,0,0,.24-2.171v-.747a3.841,3.841,0,0,0-.711-2.319c-1.27-1.428,4.126-1.19,4.126-1.19a13.439,13.439,0,0,0,.643,1.921,11.682,11.682,0,0,0,1.546,2.722,6.3,6.3,0,0,0,2.1,1.784C736.33,241.325,729.824,247.2,729.824,247.2Z" transform="translate(-612.957 -203.897)" fill="#f8bdc5"/>
    <g id="Grupo_31" data-name="Grupo 31" transform="translate(111.599 29.401)" opacity="0.1">
      <path id="Caminho_180" data-name="Caminho 180" d="M729.488,235.231a4.213,4.213,0,0,1-4.058,1.588,3.841,3.841,0,0,0-.711-2.319c-1.27-1.428,4.126-1.19,4.126-1.19a13.439,13.439,0,0,0,.643,1.921Z" transform="translate(-724.526 -233.294)"/>
    </g>
    <circle id="Elipse_12" data-name="Elipse 12" cx="4.206" cy="4.206" r="4.206" transform="translate(109.015 24.345)" fill="#f8bdc5"/>
    <path id="Caminho_181" data-name="Caminho 181" d="M791.681,246.257a25.01,25.01,0,0,0-.4,3.332c-.064,1.43-1.082,6.613-1.454,8.464a1.468,1.468,0,0,1-.879,1.072c-1.032.422-2.908.658-4.169-2.314a32.89,32.89,0,0,1-1.725-5.055,13.667,13.667,0,0,1-.347-1.768l2.779-1.508a3.423,3.423,0,0,1,.657.843,5.635,5.635,0,0,1,.695,3.2l.869,1.27s2.142-6.666,1.737-7.855,1.27-1.508,1.27-1.508,4.682-3.648,5.238-3.094S794.3,244.669,791.681,246.257Z" transform="translate(-661.03 -210.499)" fill="#f8bdc5"/>
    <path id="Caminho_182" data-name="Caminho 182" d="M648.821,238.648a18.767,18.767,0,0,1-.747,1.824,17.234,17.234,0,0,1-5.6,7.063c-4.364,2.856-3.412-2.936-3.412-2.936s1.068-6.886,1.27-7.538a8.236,8.236,0,0,0,.158-2.618c-1.666-.794-3.57-5.792-3.016-6.19s4.517,4.206,4.517,4.206,1.826.869.869,2.3-.556,7.776-.556,7.776L644.14,240a12.666,12.666,0,0,1,1.631-2.967c.347-.474.591-.761.591-.761Z" transform="translate(-540.898 -199.713)" fill="#f8bdc5"/>
    <g id="Grupo_32" data-name="Grupo 32" transform="translate(121.688 37.975)" opacity="0.1">
      <path id="Caminho_183" data-name="Caminho 183" d="M786.131,283.554c-.584.215-2.844,1.127-3.094,2.432a13.655,13.655,0,0,1-.347-1.768l2.779-1.508A3.423,3.423,0,0,1,786.131,283.554Z" transform="translate(-782.69 -282.71)"/>
    </g>
    <g id="Grupo_33" data-name="Grupo 33" transform="translate(104.867 36.552)" opacity="0.1">
      <path id="Caminho_184" data-name="Caminho 184" d="M688.75,276.888a18.771,18.771,0,0,1-.747,1.824c-.108-.785-.551-2.793-2.3-3.441.347-.474.591-.761.591-.761Z" transform="translate(-685.7 -274.51)"/>
    </g>
    <g id="Grupo_34" data-name="Grupo 34" transform="translate(112.263 33.664)" opacity="0.1">
      <path id="Caminho_185" data-name="Caminho 185" d="M732.984,267.511h-4.6v-7.459a13.9,13.9,0,0,0,.24-2.171,2.863,2.863,0,0,1,.712,2.33l2.46,5.559,1.192-4.914-.4-.634,1.633-1.942a6.3,6.3,0,0,0,2.1,1.784C739.489,261.639,732.984,267.511,732.984,267.511Z" transform="translate(-728.38 -257.88)"/>
    </g>
    <g id="Grupo_35" data-name="Grupo 35" transform="translate(104.736 55.722)" opacity="0.1">
      <path id="Caminho_186" data-name="Caminho 186" d="M700.408,387.779s-3.606-.287-6.735-.422l-.314-.014c-.445-.017-.869-.031-1.284-.042a28.755,28.755,0,0,1-7.055-1.32,11.577,11.577,0,0,1,.709-.982l4.762,1.042s.75.24,2.418.978L690.172,385l8.338,1.508s.29-.036,1.824.822Z" transform="translate(-685.02 -385)"/>
    </g>
    <path id="Caminho_187" data-name="Caminho 187" d="M696.751,261.129l-.4-.634,1.762-2.107s3.632,1.781,4.584,1.39c0,0,2.3,1.911,2.38,3.016,0,0-3.332,1.11-3.254,2.779s-1.581,5.236-1.581,5.236l-.695,2.852a12.7,12.7,0,0,0-.174,5.281l.634,3.532s-5-.4-8.338-.476a28.919,28.919,0,0,1-7.142-1.348l1.947-4.1a10.424,10.424,0,0,0,1-4.739l-.174-6.634s-.158-3.332-2.78-3.888c0,0,1.428-2.936,3.648-2.7,0,0,3.235-1.35,4.2-.438a2.858,2.858,0,0,1,.724,2.342l2.46,5.559Z" transform="translate(-579.885 -224.188)" fill="#ed677b"/>
    <g id="Grupo_36" data-name="Grupo 36" transform="translate(109.008 22.496)" opacity="0.1">
      <path id="Caminho_188" data-name="Caminho 188" d="M710.79,198.691c.638,0,1.138-.676,1.775-.641a1.808,1.808,0,0,1,.886.417,10.813,10.813,0,0,0,3.389,1.563,2.956,2.956,0,0,0,1.442.1,1.229,1.229,0,0,0,.969-.971,1.654,1.654,0,0,0-.083-.631,7.8,7.8,0,0,0-3.394-4.48,2.672,2.672,0,0,0-2.2-.46,4.357,4.357,0,0,0-1.563,1.355,5.942,5.942,0,0,1-1.216.987c-.347.21-.869.347-1.068.733C709.352,197.386,709.944,198.684,710.79,198.691Z" transform="translate(-709.613 -193.5)"/>
    </g>
    <path id="Caminho_189" data-name="Caminho 189" d="M710.79,197.781c.638,0,1.138-.676,1.775-.641a1.808,1.808,0,0,1,.886.417,10.814,10.814,0,0,0,3.389,1.563,2.956,2.956,0,0,0,1.442.1,1.229,1.229,0,0,0,.969-.971,1.654,1.654,0,0,0-.083-.631,7.8,7.8,0,0,0-3.394-4.48,2.672,2.672,0,0,0-2.2-.46,4.357,4.357,0,0,0-1.563,1.355,5.942,5.942,0,0,1-1.216.987c-.347.21-.869.347-1.068.733C709.352,196.483,709.944,197.772,710.79,197.781Z" transform="translate(-600.605 -170.253)" fill="#85555c"/>
    <path id="Caminho_190" data-name="Caminho 190" d="M705.32,326.79s3.888,1.428,6.427.318l1.27.08a5.618,5.618,0,0,0,4.343.818" transform="translate(-597.059 -281.167)" opacity="0.05"/>
    <path id="Caminho_191" data-name="Caminho 191" d="M809.358,313.09s-.634,1.508-.318,1.984" transform="translate(-682.705 -269.844)" opacity="0.05"/>
    <path id="Caminho_192" data-name="Caminho 192" d="M665.58,310.35s.318,1.508,0,1.984" transform="translate(-564.2 -267.579)" opacity="0.05"/>
    <path id="Caminho_193" data-name="Caminho 193" d="M995.9,508.14a17.354,17.354,0,0,0-3.165,18.053c4.1,10.784-7.032,28.719-7.032,28.719s.12-.017.347-.056a21.16,21.16,0,0,0,14.043-32.39C997,517.75,994.464,512.219,995.9,508.14Z" transform="translate(-828.836 -431.12)" fill="#3b67f2"/>
    <path id="Caminho_194" data-name="Caminho 194" d="M995.9,508.84a17.354,17.354,0,0,0-3.165,18.053c4.1,10.784-7.032,28.717-7.032,28.717s.12-.017.347-.056a21.16,21.16,0,0,0,14.043-32.39C997,518.45,994.464,512.919,995.9,508.84Z" transform="translate(-828.836 -431.698)" opacity="0.1"/>
    <path id="Caminho_195" data-name="Caminho 195" d="M995.889,508.14s-4.1,8.908,0,16.177.695,27.664-10.2,30.6" transform="translate(-828.827 -431.12)" fill="none" stroke="#535461" stroke-miterlimit="10" stroke-width="1"/>
    <path id="Caminho_196" data-name="Caminho 196" d="M1000,676.928s-8.293-1.32-9.049,6.111S975,691.5,975,691.5l.285.189c12.542,8.234,24.534,5.245,22.726-5.689C997.344,681.938,997.4,677.856,1000,676.928Z" transform="translate(-819.994 -570.511)" fill="#3b67f2"/>
    <path id="Caminho_197" data-name="Caminho 197" d="M1000.035,677.36s-6.438,1.412-5.906,7.267-9.554,12.871-19.088,7.308" transform="translate(-820.027 -570.943)" fill="none" stroke="#535461" stroke-miterlimit="10" stroke-width="1"/>
    <path id="Caminho_198" data-name="Caminho 198" d="M954.941,732.3s-6.532-1.306-8.274-3.049-9.581-4.789-10.451-2.606-11.757,9.581-4.355,10.887,17.419,1.737,19.6.869S954.941,732.3,954.941,732.3Z" transform="translate(-782.23 -611.042)" fill="#a8a8a8"/>
    <path id="Caminho_199" data-name="Caminho 199" d="M931.869,767c7.4,1.306,17.419,1.737,19.6.869,1.659-.664,2.811-3.85,3.266-5.333l.217.045s-1.306,5.225-3.483,6.1-12.193.436-19.6-.869c-2.137-.377-2.748-1.263-2.517-2.383C929.532,766.16,930.278,766.723,931.869,767Z" transform="translate(-782.238 -641.326)" opacity="0.2"/>
  </g>
</svg>
