<svg xmlns="http://www.w3.org/2000/svg" xmlns:xlink="http://www.w3.org/1999/xlink" width="180" height="135" viewBox="0 0 180 135">
  <defs>
    <linearGradient id="linear-gradient" x1="0.5" y1="1" x2="0.5" gradientUnits="objectBoundingBox">
      <stop offset="0" stop-color="gray" stop-opacity="0.251"/>
      <stop offset="0.54" stop-color="gray" stop-opacity="0.122"/>
      <stop offset="1" stop-color="gray" stop-opacity="0.102"/>
    </linearGradient>
  </defs>
  <g id="undraw_studying_s3l7" transform="translate(-0.012 -0.057)">
    <path id="Caminho_66" data-name="Caminho 66" d="M247.5,164.233c-.032.192-.065.383-.1.575a70.916,70.916,0,0,1-5.831,18.6q-.138.287-.28.575a53.2,53.2,0,0,1-6.57,10.2,21.087,21.087,0,0,1-4.72,4.46,23.022,23.022,0,0,1-8.4,2.827c-3.023.563-6.086,1.027-9.142,1.54q-1.625.267-3.229.56a89.638,89.638,0,0,0-8.742,1.982,45.269,45.269,0,0,0-10.2,4.224q-.387.222-.766.457c-.253.154-.51.311-.756.472s-.495.32-.739.483l-.377.257c-.124.082-.246.171-.369.253-.364.25-.722.513-1.081.767l-.014.01-.705.513c-1.324.988-2.619,2.021-3.909,3.058l-.814.656-1.261,1c-.246.2-.5.392-.744.587-.18.142-.359.284-.542.424-.919.714-1.851,1.412-2.8,2.079-.226.159-.455.318-.68.474a35.767,35.767,0,0,1-6.04,3.351l-.027.012a23.855,23.855,0,0,1-3.209,1.114,19.1,19.1,0,0,1-1.89.412,16.588,16.588,0,0,1-5.124.089c-3.346-.477-6.482-2.054-9.82-2.581-6.887-1.077-13.574,2.4-20.055,5.122q-2.379,1-4.811,1.883-1.611.585-3.238,1.114a101.321,101.321,0,0,1-20.315,4.376,46.619,46.619,0,0,1-8.625.235,28.945,28.945,0,0,1-3.229-.423,18.586,18.586,0,0,1-9.754-4.792,23.026,23.026,0,0,1-5.09-7.974q-.736-1.785-1.3-3.652a40.977,40.977,0,0,1-1.321-5.961c-.066-.455-.126-.912-.17-1.369q-.133-1.176-.2-2.362a41.18,41.18,0,0,1,1.208-12.494c1.157-4.517,3.088-8.841,3.938-13.4.036-.192.068-.383.1-.575q.17-1.027.258-2.091c.428-5.576-1.229-11.034-2.537-16.5-.046-.192-.092-.383-.136-.575q-.212-.909-.4-1.819a46.328,46.328,0,0,1-.467-17.738c.034-.192.073-.385.112-.575a28.807,28.807,0,0,1,3.97-10,34.555,34.555,0,0,1,7.478-7.967q2.065-1.66,4.271-3.106,1.586-1.037,3.229-1.963a53.518,53.518,0,0,1,28.94-6.846q.794.041,1.584.11.829.072,1.654.171a97.851,97.851,0,0,1,18.9,4.63q3.125,1.027,6.241,2.054,1.387.455,2.772.9c4.529,1.439,9.133,2.738,13.78,3.717q1.616.342,3.229.625a75.812,75.812,0,0,0,11.317,1.174q2.209.055,4.419-.046,1.117-.051,2.235-.151c7.7-.664,15.126-2.891,22.582-4.982,1.078-.3,2.157-.6,3.229-.9,1.417-.383,2.837-.755,4.261-1.1,8.868-2.144,16.771-.912,25.016,3.51a12.259,12.259,0,0,1,4.895,4.092,14.87,14.87,0,0,1,1.65,6.433c.3,3.18.51,6.4.576,9.642,0,.192,0,.383.012.575A103.3,103.3,0,0,1,247.5,164.233Z" transform="translate(-70.44 -104.101)" fill="#3b67f2" opacity="0.1"/>
    <path id="Caminho_67" data-name="Caminho 67" d="M198.553,183.736h-.58v.575h.656Zm-6.569,0a.038.038,0,0,0,0,.014l-.051.476v.086h5.031v-.034l.359-.541Zm-13.452,0v-18.6h5.779c-.061-.051-.124-.1-.189-.151l-.085-.065c-.036-.029-.071-.056-.109-.082s-.126-.091-.192-.135-.107-.074-.17-.11l-.039-.026h-4.995V163.55l-.134.065-.143.08h-.01l-.031.019-.088.058c-.031.019-.061.038-.09.058-.088.06-.17.125-.263.192l-.085.068c-.058.044-.112.091-.17.137-.226.187-.449.382-.68.561l-.17.133a4.387,4.387,0,0,1-.384.253,1.817,1.817,0,0,1-.17.094l-.1.045-.087.038h0a3.592,3.592,0,0,1-.632.2v18.181h-8.668a.265.265,0,0,0,.017.06c.048.171.1.342.141.513H175.3v19.937h.133l.151.01.275.021.445.044.2.024.221.027h.032c.127.017.257.038.387.058l.083.014.187.031.269.048h0l.644-.034h0l.088.019a.513.513,0,0,1,.109.022v-20.22h13.394v-.086l.051-.476a.038.038,0,0,1,0-.014Zm20.021,0h-.58v.575h.656Zm-6.931,0-.058.575h5.6l.381-.575Zm-13.087,0v-18.6h5.779c-.061-.051-.124-.1-.189-.151l-.085-.065c-.036-.029-.071-.056-.109-.082s-.126-.091-.192-.135-.107-.074-.17-.11l-.039-.026h-5V163.55l-.134.065-.143.08h-.01l-.031.019-.088.058c-.031.019-.061.038-.09.058-.088.06-.17.125-.263.192l-.085.068c-.058.044-.112.091-.17.137-.226.187-.449.382-.68.561l-.17.133a4.387,4.387,0,0,1-.384.253,1.817,1.817,0,0,1-.17.094l-.1.045-.087.038h0a3.592,3.592,0,0,1-.632.2v18.181h-8.668a.265.265,0,0,0,.017.06c.048.171.1.342.143.513h8.51v19.935l.133.009.151.01.275.021.445.044.2.024.221.027h.032c.127.017.257.038.387.058l.083.014.187.031.269.048h0l.644-.034h0l.088.019a.511.511,0,0,1,.109.022V184.311h13.037l.061-.575ZM222.326,145h36.41c0-.192,0-.383-.012-.575h-36.4V121.848c-1.081.291-2.16.592-3.229.9v21.686H179.5l-.1-.11.151-.171h0l14.728-16.278q-2.209.1-4.419.046l-11.326,12.511v-13.68q-1.621-.282-3.229-.625V139.8l-16.559-18.291c-2.079-.685-4.157-1.381-6.241-2.054L175.01,144.32l-.1.11H133.6V114.821q-.826-.094-1.654-.171-.79-.07-1.584-.11v29.889h-28.94V121.393q-1.647.924-3.229,1.963v21.074H82.452c-.039.19-.078.383-.112.575H98.178v19.557H83.217c.044.192.09.383.136.575H98.185v18.6H85.627c-.032.192-.065.383-.1.575H98.185v52a28.945,28.945,0,0,0,3.229.423V184.311h28.947v47.816q1.628-.532,3.238-1.114v-46.7h41.7v41.777a23.85,23.85,0,0,0,3.209-1.114l.027-.012V184.311h40.555V203.9q1.613-.293,3.229-.56V184.311h28.836q.143-.288.28-.575H222.326v-18.6h34.948c.036-.192.068-.383.1-.575H222.326Zm-120.9,0h28.938v19.557h-28.94Zm0,38.731v-18.6h28.938v18.6ZM133.6,145h41.7v19.557H133.6Zm0,38.731v-18.6h41.7v18.6Zm85.488,0H178.532v-18.6h40.555Zm0-19.169H178.532V145.528L179.1,145h39.986Zm-27.1,19.169a.038.038,0,0,0,0,.014l-.051.476v.086h5.031v-.034l.359-.541Zm6.569,0h-.58v.575h.656Zm-20.021,0v-18.6h5.779c-.061-.051-.124-.1-.189-.151l-.085-.065c-.036-.029-.071-.056-.109-.082s-.126-.091-.192-.135-.107-.074-.17-.11l-.039-.026h-5V163.55l-.134.065-.143.08h-.01l-.031.019-.088.058c-.031.019-.061.038-.09.058-.088.06-.17.125-.263.192l-.085.068c-.058.044-.112.091-.17.137-.226.187-.449.382-.68.561l-.17.133a4.387,4.387,0,0,1-.384.253,1.817,1.817,0,0,1-.17.094l-.1.045-.087.038h0a3.592,3.592,0,0,1-.632.2v18.181h-8.668a.265.265,0,0,0,.017.06c.048.171.1.342.141.513H175.3v19.937h.133l.151.01.275.021.445.044.2.024.221.027h.032c.127.017.257.038.387.058l.083.014.187.031.269.048h0l.644-.034h0l.088.019a.513.513,0,0,1,.109.022v-20.22h13.394v-.086l.051-.476a.038.038,0,0,1,0-.014Z" transform="translate(-80.309 -104.43)" fill="#3b67f2" opacity="0.1"/>
    <path id="Caminho_68" data-name="Caminho 68" d="M271.25,207.933h.258a.618.618,0,0,1-.307-.5h0c0-.394.482-.715,1.072-.715h7.5c.589,0,1.072.321,1.072.715h0c0,.392-.482.715-1.072.715h-.25a.62.62,0,0,1,.306.5c0,.34-.35.618-.819.695h2.159c.588,0,1.07.321,1.07.715s-.482.713-1.07.713H273.66c-.588,0-1.07-.321-1.07-.713,0-.34.35-.618.819-.695H271.25c-.588,0-1.07-.321-1.07-.715S270.659,207.933,271.25,207.933Z" transform="translate(-236.221 -180.769)" fill="#3b67f2" opacity="0.1"/>
    <path id="Caminho_69" data-name="Caminho 69" d="M749.77,248h.251a.62.62,0,0,1-.307-.5h0c0-.392.482-.713,1.072-.713h7.5c.589,0,1.072.321,1.072.713h0c0,.394-.482.715-1.072.715h-.25a.621.621,0,0,1,.306.5c0,.34-.35.617-.819.693h2.159c.588,0,1.07.323,1.07.715s-.482.715-1.07.715h-7.5c-.588,0-1.07-.321-1.07-.715,0-.34.35-.618.819-.693H749.77c-.588,0-1.07-.323-1.07-.715S749.186,248,749.77,248Z" transform="translate(-633.411 -213.985)" fill="#3b67f2" opacity="0.1"/>
    <path id="Caminho_70" data-name="Caminho 70" d="M203.52,419.464h.251a.622.622,0,0,1-.306-.5h0c0-.392.481-.715,1.07-.715h7.5c.589,0,1.072.323,1.072.715h0c0,.394-.482.715-1.072.715h-.25a.622.622,0,0,1,.306.5c0,.34-.35.617-.819.693h2.159c.589,0,1.07.321,1.07.715s-.481.715-1.07.715h-7.5c-.588,0-1.07-.323-1.07-.715,0-.34.352-.618.819-.695H203.52c-.588,0-1.07-.321-1.07-.713S202.932,419.464,203.52,419.464Z" transform="translate(-180.019 -356.115)" fill="#3b67f2" opacity="0.1"/>
    <path id="Caminho_71" data-name="Caminho 71" d="M660.277,713.44l-1.26,1c-.246.2-.5.389-.744.583-.18.141-.358.282-.542.421-.919.708-1.85,1.4-2.8,2.064-.226.158-.455.316-.679.47a35.818,35.818,0,0,1-6.036,3.325l-.027.012V713.44Z" transform="translate(-549.984 -600.678)" fill="#65617d"/>
    <path id="Caminho_72" data-name="Caminho 72" d="M451.509,328.983l.19-5.868c-.114-.088-.229-.17-.34-.251a31.283,31.283,0,0,0-.3-5.233c-.768-5.868-5.752-6-7.159-4.784a3.394,3.394,0,0,1-.606.418c.127-.837.285-1.676.4-2.505.615-4.47-.34-9.5-3.808-12.388a44.047,44.047,0,0,0-4.822-2.96c-2.857-1.8-5.114-4.463-8-6.218s-6.946-2.412-9.467-.156c-.977.873-1.607,2.084-2.609,2.926-1.868,1.569-4.781,1.673-6.411,3.426h0c-.082.088-.16.178-.234.273-1.359,1.743-.987,4.214-.554,6.376.521,2.6.306,4.688,2.537,5.435.008.1.015.207.027.309a11.024,11.024,0,0,0,4.851,7.935l-.362.129c-.965.34-1.833.669-2.388.9-2.038.831-6.328,1.912-6.328,1.912s-.1,1.223-.083,3.026c-1.43,1.554-3.816,4.285-4.518,5.9-1.019,2.361-6.777,9.122-8.31,10.143s-3.2,2.232-3.2,2.232a15,15,0,0,1-3.578,1.467,19.275,19.275,0,0,1-3.261-.384s-9.842-12.059-9.2-2.806,8.5,9.567,8.5,9.567l7.926-.127s4.283.574,6.2-1.019c1.637-1.359,10.122-8.813,12.848-12.194.063.07.126.138.192.2,0,0,1.085-1.4,1.214,0s-.7,2.038-.256,2.548a9.732,9.732,0,0,1,1.853,3c.063.7-1.788,3.567,1.342,5.741.049.034.1.066.16.1a8.017,8.017,0,0,0,2.335,2.517l9.587-.127,18.089,1.4s.538-.474,1.267-1.248a3.959,3.959,0,0,0,3.845,1.189s2.174-2.614,2.238-4.336c0,0-1.406-3.636-2.038-4.72s.448-3.444.448-3.444.766-2.3,1.214-2.3.127-1.529.127-1.529a1.858,1.858,0,0,1-.192-1.722A16.484,16.484,0,0,0,451.509,328.983Z" transform="translate(-322.326 -247.58)" fill="url(#linear-gradient)"/>
    <path id="Caminho_73" data-name="Caminho 73" d="M671.57,442.568l-.679.795h0l-2.745,3.2-3.585.217-5.739.353s-7.738-9.324-6.284-11.354a3.716,3.716,0,0,0,.509-2.61c-.014-.126-.032-.251-.054-.375a10.853,10.853,0,0,0-.9-2.785l.19-.087.122-.056,6.766-3.088,1.675-.764a4.521,4.521,0,0,0,.458,1.321c.032.065.068.129.105.19,2.308,3.821,9.71,1.4,9.71,1.4Z" transform="translate(-553.218 -362.479)" fill="#ee8e9e"/>
    <path id="Caminho_74" data-name="Caminho 74" d="M768.112,445.388a11.159,11.159,0,0,1-.428,3.312l-9.577,1.459-.358-2.486-1.418-9.818,1.332-1.332a3.555,3.555,0,0,0,3.045-.761c1.394-1.206,6.342-1.078,7.1,4.755a32.3,32.3,0,0,1,.3,4.871Z" transform="translate(-639.744 -370.085)" fill="#ee8e9e"/>
    <path id="Caminho_75" data-name="Caminho 75" d="M785.992,606.226s2.155-2.6,2.22-4.312l-2.157-3.616-1.9-2.038-3.553,6.858S782.947,607.177,785.992,606.226Z" transform="translate(-659.892 -503.642)" fill="#dfe5ee"/>
    <path id="Caminho_76" data-name="Caminho 76" d="M785.992,606.226s2.155-2.6,2.22-4.312l-2.157-3.616-1.9-2.038-3.553,6.858S782.947,607.177,785.992,606.226Z" transform="translate(-659.892 -503.642)" opacity="0.1"/>
    <path id="Caminho_77" data-name="Caminho 77" d="M179.942,693.286c-.18.141-.358.282-.542.421-.919.708-1.85,1.4-2.8,2.064-.226.158-.455.316-.679.47H121.744l-16.029-.574-12.891-.109-3.227-.17-16.1-.849a40.423,40.423,0,0,1-1.326-5.921c-.066-.452-.126-.905-.17-1.359l17.59.975,3.227.182,28.92,1.613,3.235.18,41.668,2.327,3.207.18h.027Z" transform="translate(-71.725 -578.944)" fill="#d48a9b"/>
    <path id="Caminho_78" data-name="Caminho 78" d="M200.708,627.811A45.411,45.411,0,0,0,190.518,632c-.256.148-.51.3-.766.453s-.51.309-.756.469-.494.318-.739.479l-.377.255-.369.251c-.363.25-.722.509-1.08.761l-.014.01-.7.51c-1.323.98-2.617,2.006-3.906,3.035l-.817.651-1.257,1c-.246.2-.5.389-.744.582-.18.141-.358.282-.542.421l-9.511-.453h-.027l-3.207-.149L124.016,638.3l-3.235-.155-28.92-1.374-3.227-.155-17.427-.82c-.066-.452-.126-.905-.17-1.359q-.132-1.167-.2-2.344l17.792-6.284,3.227-1.143,2.931-1.036,5.341.279,12.346.634h0l8.308.436,3.235.17,2.067.109h0l.494.027h0l17.395.909h0l.183.012h0l7.762.4h.139l.776.039h0l2.646.139,3.308.17h0l1.09.058h0l.206.012,1.542.08h0l.44.022h0l1.473.078h0l.586.032h.141l1.377.073,2.133.112h.01l.662.034h.071l.4.022.971.051h0l.849.044h.008l.953.049h.015l.722.039h0l.554.029,1.965.1h0l.353.019h.122l.17.01h0l.576.031h0l.258.014h0l2,.1h.183l2.959-.026h.02l11.248-.092h1.112l3.621-.029h.54Z" transform="translate(-70.762 -526.284)" fill="#efc6cd"/>
    <path id="Caminho_79" data-name="Caminho 79" d="M387.157,640.322l1.046,5.566,28.444-.428s2.14.618,2.092-1.094c0,0,4.329-4.091,26.257.666l-8.419-6.612-23.013,1.236-26.685-.713Z" transform="translate(-333.072 -538.603)" fill="#3b67f2"/>
    <path id="Caminho_80" data-name="Caminho 80" d="M391.59,640.28l1,6.041s24.457-.713,28.3-.047l-2.906-5.518S403.2,639.376,391.59,640.28Z" transform="translate(-336.992 -539.897)" fill="#fff"/>
    <path id="Caminho_81" data-name="Caminho 81" d="M391.59,640.28l1,6.041s24.457-.713,28.3-.047l-2.906-5.518S403.2,639.376,391.59,640.28Z" transform="translate(-336.992 -539.897)" opacity="0.1"/>
    <path id="Caminho_82" data-name="Caminho 82" d="M393.74,640.255l.985,5.618s24.146-.662,27.95-.044L419.81,640.7S405.2,639.414,393.74,640.255Z" transform="translate(-338.776 -539.896)" fill="#fff"/>
    <path id="Caminho_83" data-name="Caminho 83" d="M396.35,641.35l.96,5.255s23.616-.62,27.344-.041l-2.8-4.8A198.613,198.613,0,0,0,396.35,641.35Z" transform="translate(-340.943 -540.818)" opacity="0.1"/>
    <path id="Caminho_84" data-name="Caminho 84" d="M397.47,640.237l.965,5.265s23.616-.62,27.344-.041l-2.809-4.806A199.512,199.512,0,0,0,397.47,640.237Z" transform="translate(-341.873 -539.9)" fill="#fff"/>
    <path id="Caminho_85" data-name="Caminho 85" d="M282.478,557.41s1.236,1.615-.569,4.056-3.3,4.5-2.694,6.021c0,0,2.717-4.531,4.942-4.586S284.918,560.134,282.478,557.41Z" transform="translate(-243.609 -471.44)" fill="#3b67f2"/>
    <path id="Caminho_86" data-name="Caminho 86" d="M282.819,557.41a1.963,1.963,0,0,1,.253.51c2.164,2.548,3.317,4.925,1.236,4.976-1.938.054-4.261,3.519-4.818,4.4q.029.1.066.2s2.717-4.531,4.942-4.586S285.259,560.134,282.819,557.41Z" transform="translate(-243.95 -471.44)" opacity="0.1"/>
    <path id="Caminho_87" data-name="Caminho 87" d="M311.225,567.757c0,.567-.065,1.029-.143,1.029s-.143-.462-.143-1.029.08-.3.158-.3S311.225,567.188,311.225,567.757Z" transform="translate(-270.056 -479.757)" fill="#ffd037"/>
    <path id="Caminho_88" data-name="Caminho 88" d="M312.5,571.615c-.5.273-.934.438-.971.369s.34-.34.836-.618.3-.075.34,0S313,571.343,312.5,571.615Z" transform="translate(-270.541 -482.936)" fill="#ffd037"/>
    <path id="Caminho_89" data-name="Caminho 89" d="M247.1,557.41s-1.236,1.615.571,4.056,3.295,4.5,2.694,6.021c0,0-2.726-4.531-4.944-4.586S244.662,560.134,247.1,557.41Z" transform="translate(-214.786 -471.44)" fill="#3b67f2"/>
    <path id="Caminho_90" data-name="Caminho 90" d="M247.1,557.41a2.038,2.038,0,0,0-.253.51c-2.164,2.548-3.317,4.925-1.236,4.976,1.938.054,4.263,3.519,4.82,4.4a2.04,2.04,0,0,1-.066.2s-2.726-4.531-4.944-4.586S244.662,560.134,247.1,557.41Z" transform="translate(-214.786 -471.44)" opacity="0.1"/>
    <path id="Caminho_91" data-name="Caminho 91" d="M247.13,567.757c0,.567.065,1.029.143,1.029s.143-.462.143-1.029-.08-.3-.158-.3S247.13,567.188,247.13,567.757Z" transform="translate(-217.111 -479.757)" fill="#ffd037"/>
    <path id="Caminho_92" data-name="Caminho 92" d="M241.01,571.615c.5.273.936.438.973.369s-.34-.34-.836-.618-.3-.075-.34,0S240.51,571.343,241.01,571.615Z" transform="translate(-211.779 -482.936)" fill="#ffd037"/>
    <path id="Caminho_93" data-name="Caminho 93" d="M254,600.224l-.061.509-.087.712-.036.3-.087.713-.037.3-.088.713-.988,8.1c-.088.724-1.27,1.287-2.7,1.287h-5.133c-1.427,0-2.607-.564-2.7-1.287l-.99-8.1-.087-.713-.036-.3-.088-.713-.036-.3-.087-.712-.063-.509c-.049-.409.589-.754,1.4-.754h10.506C253.418,599.47,254.058,599.815,254,600.224Z" transform="translate(-211.755 -506.284)" fill="#65617d"/>
    <path id="Caminho_94" data-name="Caminho 94" d="M183.826,551.59l-.087.713h-13l-.087-.713Z" transform="translate(-141.636 -457.204)" fill="#9d9cb5"/>
    <path id="Caminho_95" data-name="Caminho 95" d="M184.3,557.54l-.087.713H171.458l-.088-.713Z" transform="translate(-142.233 -462.137)" fill="#9d9cb5"/>
    <path id="Caminho_96" data-name="Caminho 96" d="M184.784,563.49l-.087.712h-12.51l-.087-.712Z" transform="translate(-142.839 -467.069)" fill="#9d9cb5"/>
    <path id="Caminho_97" data-name="Caminho 97" d="M395.773,594.357s-3.3-3.171-3.171.951S395.773,594.357,395.773,594.357Z" transform="translate(-337.836 -501.133)" fill="#ee8e9e"/>
    <path id="Caminho_98" data-name="Caminho 98" d="M409.449,496.164a4.811,4.811,0,0,1-.982,1.513c-2.86,3.444-11,10.6-12.592,11.931-1.9,1.586-6.152,1.019-6.152,1.019l-7.864.127s-7.8-.318-8.436-9.511,9.132,2.79,9.132,2.79a19.074,19.074,0,0,0,3.235.38,14.84,14.84,0,0,0,3.551-1.457s1.649-1.206,3.171-2.22,7.23-7.738,8.246-10.085a27.551,27.551,0,0,1,4.149-5.5c.822-.909,1.432-1.529,1.432-1.529S409.892,494.2,409.449,496.164Z" transform="translate(-321.888 -410.189)" fill="#ee8e9e"/>
    <path id="Caminho_99" data-name="Caminho 99" d="M563.49,496.131a4.811,4.811,0,0,1-.982,1.513c-2.887-2.94-3.49-8.806-3.558-12.536.822-.909,1.432-1.529,1.432-1.529S563.933,494.164,563.49,496.131Z" transform="translate(-475.914 -410.226)" opacity="0.1"/>
    <path id="Caminho_100" data-name="Caminho 100" d="M670.889,462.19h0l-2.743,3.2-3.585.217-5.739.353s-7.738-9.324-6.284-11.354a3.716,3.716,0,0,0,.509-2.61c-.014-.126-.032-.251-.054-.375a10.853,10.853,0,0,0-.9-2.785l.19-.087.122-.056a12.182,12.182,0,0,1,.622,2.6c.019.121.036.246.053.375.059.459.114.968.17,1.529.442,5.133,3.67,7.064,5.127,7.678a14.792,14.792,0,0,1,1.372.664,7.322,7.322,0,0,0,4.6.832,13.919,13.919,0,0,0,6.53-3.086l.015,2.573Z" transform="translate(-553.218 -381.293)" opacity="0.1"/>
    <path id="Caminho_101" data-name="Caminho 101" d="M595.294,478.2s-23.592-.065-26.7-2.22-1.267-5.01-1.332-5.708a9.786,9.786,0,0,0-1.838-2.982c-.443-.51.38-1.141.253-2.536s-1.2,0-1.2,0c-4.441-4.5-3.49-15.919-3.49-15.919s4.246-1.077,6.284-1.9c.552-.224,1.411-.543,2.378-.888l.358-.129c2.492-.892,5.453-1.9,5.453-1.9s.569-.4,1.141.8a10.581,10.581,0,0,1,.735,2.87c.019.121.036.246.053.375.059.459.114.968.17,1.529.442,5.133,3.67,7.064,5.127,7.678a14.775,14.775,0,0,1,1.372.664,7.322,7.322,0,0,0,4.6.832,13.919,13.919,0,0,0,6.53-3.086l.015,2.573.044,7.731Z" transform="translate(-477.518 -377.274)" fill="#dfe5ee"/>
    <path id="Caminho_102" data-name="Caminho 102" d="M631.857,582.337l-.38,2.41s-9.387,2.345-13.064,3.043-11.607-.19-12.177,1.332,2.41,3.616,2.41,3.616l9.511-.127,17.948,1.4s6.85-6.026,4.63-10.212S631.857,582.337,631.857,582.337Z" transform="translate(-515.089 -491.363)" fill="#ee8e9e"/>
    <path id="Caminho_103" data-name="Caminho 103" d="M626,474.58s-4.314,3.551-3.488,5.265S626,474.58,626,474.58Z" transform="translate(-528.582 -402.803)" opacity="0.1"/>
    <path id="Caminho_104" data-name="Caminho 104" d="M591.99,512.29s-4.377,7.548-4.122,8.118,1.459,2.6,1.394,1.078S591.99,512.29,591.99,512.29Z" transform="translate(-499.908 -434.043)" opacity="0.1"/>
    <path id="Caminho_105" data-name="Caminho 105" d="M611.724,520.14a38.9,38.9,0,0,1-2.03,6.659C608.684,528.766,611.724,520.14,611.724,520.14Z" transform="translate(-517.864 -440.562)" opacity="0.1"/>
    <path id="Caminho_106" data-name="Caminho 106" d="M628.4,427.552a10.972,10.972,0,0,1-8.339,5.642h-.02a10.953,10.953,0,0,1-7.721-2.021c2.548-.921,5.812-2.028,5.812-2.028s.569-.4,1.141.8l8.563-3.906A4.539,4.539,0,0,0,628.4,427.552Z" transform="translate(-520.209 -362.561)" opacity="0.1"/>
    <path id="Caminho_107" data-name="Caminho 107" d="M607.623,348.165a10.922,10.922,0,0,1-1.444,5.445,11.052,11.052,0,0,1-1.635,2.177,10.926,10.926,0,0,1-6.651,3.288h-.022a10.711,10.711,0,0,1-1.219.07,10.972,10.972,0,0,1-10.9-9.735,10.632,10.632,0,0,1-.07-1.238,10.972,10.972,0,1,1,21.943,0Z" transform="translate(-498.094 -288.874)" fill="#ee8e9e"/>
    <path id="Caminho_108" data-name="Caminho 108" d="M753.024,497.82l1.019-1.529s5.581-6.659,11.039-2.41l-.19,5.836a15.469,15.469,0,0,1-.635,2.717,1.857,1.857,0,0,0,.19,1.714s.318,1.529-.126,1.529-1.206,2.283-1.206,2.283-1.078,2.347-.443,3.426,2.03,4.693,2.03,4.693a6.992,6.992,0,0,1-2.855-3.551s-5.391-4.187-9.577-1.529Z" transform="translate(-636.374 -417.539)" opacity="0.1"/>
    <path id="Caminho_109" data-name="Caminho 109" d="M775.044,489.679a11.158,11.158,0,0,1-.428,3.312l-9.577,1.459-.358-2.486C765.933,490.656,770.492,486.5,775.044,489.679Z" transform="translate(-646.676 -414.345)" opacity="0.1"/>
    <path id="Caminho_110" data-name="Caminho 110" d="M753.024,495.82l1.019-1.529s5.581-6.659,11.039-2.41l-.19,5.836a15.468,15.468,0,0,1-.635,2.717,1.857,1.857,0,0,0,.19,1.714s.318,1.529-.126,1.529-1.206,2.283-1.206,2.283-1.078,2.347-.443,3.426,2.03,4.693,2.03,4.693a6.992,6.992,0,0,1-2.855-3.551s-5.391-4.187-9.577-1.529Z" transform="translate(-636.374 -415.882)" fill="#dfe5ee"/>
    <path id="Caminho_111" data-name="Caminho 111" d="M766.876,496.61s-9.2,5.645-8.752,10.6C758.124,507.206,763.262,498.132,766.876,496.61Z" transform="translate(-641.222 -421.042)" opacity="0.1"/>
    <path id="Caminho_112" data-name="Caminho 112" d="M615.665,369.609l.044,7.731a6.358,6.358,0,0,1-4.674-1.274,5.608,5.608,0,0,1-1.7-3.04,10.772,10.772,0,0,1-.221-2.875.163.163,0,0,1,0-.029c.107-2.135.6-4.27.34-6.391s-1.544-4.36-3.643-4.806a2.2,2.2,0,0,1-1.175-.426,1.7,1.7,0,0,1-.275-1.338l.061-.793c.015-.2.022-.406.022-.608a7.784,7.784,0,0,0-6.284-7.633l-.068-.012a4.292,4.292,0,0,0-1.8-.1c-1.124.26-1.851,1.35-2.887,1.868-1.987.992-5.3-.093-7.381-.435-.136-.022-.265-.048-.389-.076a10.65,10.65,0,0,1-.07-1.238,10.972,10.972,0,1,1,20.5,5.445c.032.065.068.129.105.19,2.308,3.821,9.71,1.4,9.71,1.4l.445,13.636Z" transform="translate(-497.999 -288.769)" opacity="0.1"/>
    <path id="Caminho_113" data-name="Caminho 113" d="M579.939,311.293c1.029-.52,1.756-1.61,2.887-1.868a4.332,4.332,0,0,1,1.8.1l.068.014a7.791,7.791,0,0,1,6.255,8.242l-.061.793a1.679,1.679,0,0,0,.277,1.337,2.147,2.147,0,0,0,1.174.425c2.1.448,3.385,2.675,3.643,4.808s-.241,4.275-.34,6.418.3,4.509,1.916,5.917c2.548,2.208,6.42.951,9.791.749-1.491,0-2.609-1.539-2.69-3.026a9.071,9.071,0,0,1,1.214-4.246,8.425,8.425,0,0,0,1.128-4.27c-.194-2.038-1.8-3.67-2.415-5.632-.717-2.283-.025-4.733.3-7.106.61-4.443-.34-9.445-3.779-12.317a43.676,43.676,0,0,0-4.784-2.945c-2.836-1.8-5.073-4.436-7.94-6.185s-6.892-2.4-9.394-.156c-.968.868-1.593,2.072-2.588,2.909-1.945,1.639-5.036,1.669-6.595,3.68-1.342,1.731-.978,4.188-.549,6.337.572,2.865.25,5.1,3.312,5.6C574.639,311.2,577.951,312.287,579.939,311.293Z" transform="translate(-484.128 -250.411)" fill="#603556"/>
    <path id="Caminho_114" data-name="Caminho 114" d="M605.062,374.664c-2.454.3-4.886.455-6.673-1.094-1.62-1.408-2.019-3.772-1.916-5.917s.6-4.288.34-6.42-1.544-4.358-3.643-4.806A2.179,2.179,0,0,1,592,356a1.693,1.693,0,0,1-.277-1.338l.061-.793a7.789,7.789,0,0,0-6.255-8.241l-.068-.014a4.331,4.331,0,0,0-1.8-.1c-1.124.26-1.851,1.359-2.887,1.868-1.989.994-5.3-.092-7.383-.433-3.057-.5-2.738-2.734-3.312-5.6a10.781,10.781,0,0,1-.17-4.9,2.669,2.669,0,0,0-.234.273c-1.342,1.731-.978,4.188-.549,6.337.572,2.865.25,5.1,3.312,5.6,2.082.34,5.394,1.427,7.383.433,1.029-.52,1.756-1.61,2.887-1.868a4.332,4.332,0,0,1,1.8.1l.068.014a7.791,7.791,0,0,1,6.255,8.242l-.061.793a1.68,1.68,0,0,0,.277,1.337,2.147,2.147,0,0,0,1.174.425c2.1.448,3.385,2.675,3.643,4.808s-.239,4.275-.34,6.418.3,4.509,1.916,5.917c2.548,2.208,6.42.951,9.791.749A2.583,2.583,0,0,1,605.062,374.664Z" transform="translate(-484.02 -288.176)" opacity="0.1"/>
    <path id="Caminho_115" data-name="Caminho 115" d="M369.237,575.407l10.471-3.906a1,1,0,0,1,1.282.584h0a1,1,0,0,1-.584,1.282l-10.47,3.906-2.245-.224Z" transform="translate(-317.158 -483.089)" fill="#5c5c8e"/>
    <path id="Caminho_116" data-name="Caminho 116" d="M380.641,572.532h0a1,1,0,0,1-.586,1.282l-10.477,3.92-1.685-.17-.243.258,2.245.224,10.471-3.906a1,1,0,0,0,.584-1.282h0a1,1,0,0,0-.408-.5A1.154,1.154,0,0,1,380.641,572.532Z" transform="translate(-317.125 -483.854)" fill="#fff" opacity="0.1"/>
    <path id="Caminho_117" data-name="Caminho 117" d="M298.807,539.52l.7,1.867-1.841-.185-.4-.041.55-.584Z" transform="translate(-246.729 -447.193)" fill="#efc8c4"/>
    <path id="Caminho_118" data-name="Caminho 118" d="M368.265,601a.445.445,0,0,1,.109.117.17.17,0,0,1,0,.182.362.362,0,0,1-.1.073.34.34,0,0,0-.149.251l-.4-.039Z" transform="translate(-317.186 -507.62)" fill="#727a9c"/>
    <path id="Caminho_119" data-name="Caminho 119" d="M569.424,635.255s9.069-1.9,24.287.51l-5.961-4.375L576.9,629.17l-7.673,2.038Z" transform="translate(-484.439 -530.941)" fill="#fff"/>
    <path id="Caminho_120" data-name="Caminho 120" d="M569.424,635.255s9.069-1.9,24.287.51l-5.961-4.375L576.9,629.17l-7.673,2.038Z" transform="translate(-484.439 -530.941)" opacity="0.1"/>
    <path id="Caminho_121" data-name="Caminho 121" d="M549.964,639.865s4.567-12.354,28.023.039l-8.419-5.418s-20.168-5.572-22.5.849Z" transform="translate(-466.043 -533.482)" fill="#fff"/>
    <path id="Caminho_122" data-name="Caminho 122" d="M549.906,635.47s4.567-13.208,28.023.238l-8.419-5.876s-20.175-6.664-22.51.311Z" transform="translate(-465.985 -529.096)" opacity="0.1"/>
    <path id="Caminho_123" data-name="Caminho 123" d="M549.964,635.229s4.567-13.4,28.023.042l-8.419-5.876s-20.168-6.474-22.5.51Z" transform="translate(-466.043 -528.851)" fill="#fff"/>
    <path id="Caminho_124" data-name="Caminho 124" d="M549.931,632.57s4.567-14.9,28.023.229l-8.426-6.612s-20.168-6.794-22.5,1.046Z" transform="translate(-466.01 -526.188)" opacity="0.1"/>
    <path id="Caminho_125" data-name="Caminho 125" d="M549.931,631.632s4.567-15.078,28.023.047l-8.426-6.612s-20.168-6.794-22.5,1.046Z" transform="translate(-466.01 -525.26)" fill="#fff"/>
    <path id="Caminho_126" data-name="Caminho 126" d="M965.362,668.71s-5.63,6.031-.562,8.961a1.406,1.406,0,0,0,1.608.38s-.319-.284.321-.831a3.8,3.8,0,0,0,.6-.662,1.869,1.869,0,0,0,.35-1.131h0s.737-2.393-1.6-5.5c0,0-.212-1.039-.392-1.153l-.428,1.449a2.5,2.5,0,0,1,1.479,1.092s-1.417-1.112-1.554-.88c-.027.048-.192.779-.192.779a4.1,4.1,0,0,1,2.453,1.766s-1.51-1.551-2.517-1.489l-.183,1.117a4.311,4.311,0,0,1,2.717,1.851s-1.634-1.568-2.745-1.6l-.032,1.123s1.941.442,2.534,1.641c0,0-2.07-1.619-2.524-1.382a5.548,5.548,0,0,0,.17,1.3s1.386.34,1.668,1.077c0,0-1.5-.936-1.627-.793a5.842,5.842,0,0,0,.963,1.9A4.225,4.225,0,0,1,964.7,675.9a2.329,2.329,0,0,0-.282,1.3s-.555-.615.189-1.627a5.37,5.37,0,0,1-.2-1.219,5.073,5.073,0,0,0-1.1,1.7,2.257,2.257,0,0,1,1.1-1.989v-1.131a7.211,7.211,0,0,0-1.471,1.817s-.017-1.053,1.5-2.1l.17-1.1a8.6,8.6,0,0,0-1.571,1.6,3.417,3.417,0,0,1,1.63-1.912l.2-.72s-.808.662-1.019.873-.29.17-.29.17a3.566,3.566,0,0,1,1.393-1.349A8.11,8.11,0,0,0,965.362,668.71Z" transform="translate(-811.014 -563.698)" fill="#3b67f2" opacity="0.1"/>
    <path id="Caminho_127" data-name="Caminho 127" d="M1102.562,90.91s-7.522,3.4-3.976,8.049a1.408,1.408,0,0,0,1.337.973s-.185-.386.617-.644a3.723,3.723,0,0,0,.812-.379,1.868,1.868,0,0,0,.759-.909h0s1.6-1.923.64-5.691c0,0,.205-1.041.083-1.216l-.954,1.172a2.493,2.493,0,0,1,.944,1.578s-.876-1.573-1.094-1.41c-.044.032-.477.644-.477.644a4.14,4.14,0,0,1,1.581,2.576s-.795-2.014-1.749-2.347l-.6.961a4.323,4.323,0,0,1,1.8,2.756s-.9-2.075-1.914-2.537l-.464,1.019s1.622,1.157,1.7,2.492c0,0-1.286-2.293-1.8-2.249a5.273,5.273,0,0,0-.34,1.269s1.145.849,1.124,1.637c0,0-1.019-1.44-1.189-1.359a5.816,5.816,0,0,0,.155,2.128,4.216,4.216,0,0,1-.372-2.14,2.325,2.325,0,0,0-.763,1.094s-.275-.783.8-1.43a5.325,5.325,0,0,1,.282-1.2,5.07,5.07,0,0,0-1.666,1.136s.229-.994,1.78-1.411l.442-1.039A7.22,7.22,0,0,0,1098,95.538s.391-.978,2.191-1.359l.579-.948a8.675,8.675,0,0,0-2.067.87,3.433,3.433,0,0,1,2.244-1.135l.46-.588s-1,.3-1.282.411-.34.046-.34.046a3.567,3.567,0,0,1,1.816-.707A8.927,8.927,0,0,0,1102.562,90.91Z" transform="translate(-923.045 -84.813)" fill="#3b67f2" opacity="0.1"/>
    <path id="Caminho_128" data-name="Caminho 128" d="M670.523,103.29s-11.3,3.227-5.807,8.03a2.18,2.18,0,0,0,2.052,1.019s-.292-.394.917-.633a7.183,7.183,0,0,0,1.219-.36,2.176,2.176,0,0,0,1.124-.9h0s2.378-1.9.817-5.737c0,0,.284-1.046.093-1.226l-1.413,1.158s1.359.7,1.472,1.62c0,0-1.371-1.612-1.7-1.454-.066.032-.707.637-.707.637s2.357,1.219,2.464,2.648c0,0-1.257-2.057-2.717-2.418l-.883.954s2.582,1.211,2.794,2.835c0,0-1.423-2.121-2.965-2.616l-.679,1.019s2.486,1.213,2.649,2.565c0,0-2.009-2.352-2.78-2.323a3.983,3.983,0,0,0-.484,1.275s1.756.9,1.748,1.685c0,0-1.586-1.484-1.848-1.406a4.048,4.048,0,0,0,.292,2.155,3.228,3.228,0,0,1-.622-2.172,2.554,2.554,0,0,0-1.124,1.084s-.438-.8,1.175-1.422c0,0,.206-1.084.394-1.209a8.308,8.308,0,0,0-2.491,1.1s.319-1,2.656-1.379l.642-1.039a13.014,13.014,0,0,0-3.088,1.065s.566-.978,3.283-1.318l.849-.943a16.711,16.711,0,0,0-3.108.824s.824-.824,3.366-1.087l.679-.581s-1.51.275-1.931.38-.509.037-.509.037a6.69,6.69,0,0,1,2.717-.666S670.621,103.361,670.523,103.29Z" transform="translate(-562.452 -95.091)" fill="#3b67f2" opacity="0.1"/>
    <path id="Caminho_129" data-name="Caminho 129" d="M890.984,798.43s5.69-5.977.65-8.956a1.408,1.408,0,0,0-1.6-.4s.318.287-.328.829a3.834,3.834,0,0,0-.61.656,1.856,1.856,0,0,0-.36,1.128h0s-.763,2.386,1.551,5.515c0,0,.2,1.041.38,1.158l.443-1.445a2.494,2.494,0,0,1-1.469-1.106s1.4,1.124,1.544.893c.029-.048.2-.776.2-.776a4.134,4.134,0,0,1-2.435-1.79s1.495,1.566,2.5,1.513l.194-1.116a4.332,4.332,0,0,1-2.7-1.868s1.619,1.583,2.729,1.63l.042-1.124s-1.938-.469-2.526-1.675c0,0,2.055,1.641,2.51,1.408a5.057,5.057,0,0,0-.17-1.3s-1.382-.364-1.658-1.094c0,0,1.489.951,1.619.808a5.828,5.828,0,0,0-.944-1.912,4.223,4.223,0,0,1,1.151,1.841,2.321,2.321,0,0,0,.294-1.3s.55.622-.2,1.625a5.372,5.372,0,0,1,.192,1.221,5.088,5.088,0,0,0,1.114-1.68,2.227,2.227,0,0,1-1.116,1.977l-.017,1.131a7.207,7.207,0,0,0,1.488-1.8s0,1.055-1.517,2.087l-.17,1.1a8.62,8.62,0,0,0,1.586-1.585,3.422,3.422,0,0,1-1.649,1.9l-.205.718s.815-.654,1.033-.863.292-.17.292-.17a3.555,3.555,0,0,1-1.406,1.335A8.71,8.71,0,0,0,890.984,798.43Z" transform="translate(-749.547 -663.373)" fill="#3b67f2" opacity="0.1"/>
    <path id="Caminho_130" data-name="Caminho 130" d="M575.85,55.548s.97,8.193,6.479,6.216a1.409,1.409,0,0,0,1.33-.983s-.425.061-.428-.781a3.806,3.806,0,0,0-.117-.888,1.855,1.855,0,0,0-.637-1h0S581.125,56,577.234,55.8c0,0-.931-.51-1.134-.445l.831,1.262a2.487,2.487,0,0,1,1.788-.425s-1.763.363-1.673.618c.017.053.469.649.469.649a4.144,4.144,0,0,1,2.947-.739s-2.159.149-2.763.96l.725.863a4.325,4.325,0,0,1,3.171-.885s-2.252.238-3,1.061l.846.751s1.59-1.2,2.887-.876c0,0-2.575.537-2.687,1.034a5.432,5.432,0,0,0,1.109.71s1.162-.834,1.9-.579c0,0-1.681.54-1.656.73a5.837,5.837,0,0,0,2.075.493,4.31,4.31,0,0,1-2.152-.289,2.329,2.329,0,0,0,.813,1.056s-.829.025-1.123-1.189a5.412,5.412,0,0,1-1.061-.63,5.084,5.084,0,0,0,.583,1.929,2.236,2.236,0,0,1-.812-2.121L578.469,59a7.248,7.248,0,0,0,.437,2.3,2.845,2.845,0,0,1-.639-2.5l-.729-.837a8.628,8.628,0,0,0,.205,2.232,3.419,3.419,0,0,1-.406-2.48l-.423-.617s-.015,1.045,0,1.347-.058.331-.058.331a3.567,3.567,0,0,1-.133-1.941A8.672,8.672,0,0,0,575.85,55.548Z" transform="translate(-489.941 -55.29)" fill="#3b67f2" opacity="0.1"/>
    <path id="Caminho_131" data-name="Caminho 131" d="M777.71,733.3s-7.952-2.208-8.207,3.641a1.409,1.409,0,0,0,.406,1.6s.1-.414.885-.1a3.808,3.808,0,0,0,.866.229,1.857,1.857,0,0,0,1.165-.214h0s2.463-.452,4.134-3.964c0,0,.824-.667.849-.881l-1.483.29a2.493,2.493,0,0,1-.285,1.817s.34-1.77.063-1.783c-.056,0-.78.188-.78.188a4.107,4.107,0,0,1-.433,2.991s.679-2.055.158-2.921l-1.077.355a4.318,4.318,0,0,1-.384,3.268s.635-2.172.153-3.174l-1.009.491s.51,1.926-.284,3.006c0,0,.479-2.585.059-2.879a5.524,5.524,0,0,0-1.075.758s.34,1.391-.183,1.977c0,0,.136-1.761-.049-1.809a5.814,5.814,0,0,0-1.243,1.734,4.223,4.223,0,0,1,1.084-1.882,2.332,2.332,0,0,0-1.286.352s.289-.776,1.529-.584a5.326,5.326,0,0,1,.987-.744,5.048,5.048,0,0,0-2.008-.194,2.247,2.247,0,0,1,2.271.054l1.005-.51a7.243,7.243,0,0,0-2.291-.465,2.8,2.8,0,0,1,2.548.355l1.05-.358a8.641,8.641,0,0,0-2.143-.654,3.424,3.424,0,0,1,2.449.564l.73-.158s-.961-.411-1.248-.51-.285-.17-.285-.17a3.566,3.566,0,0,1,1.839.611A8.788,8.788,0,0,0,777.71,733.3Z" transform="translate(-650.598 -616.828)" fill="#3b67f2" opacity="0.1"/>
  </g>
</svg>
