<svg xmlns="http://www.w3.org/2000/svg" width="82.313" height="19.749" viewBox="0 0 82.313 19.749">
  <g id="meraki_logo" data-name="meraki logo" transform="translate(38.193 21.574)">
    <path id="Caminho_1" data-name="Caminho 1" d="M35.1,20.412a.266.266,0,0,0-.341-.163l-1.866.659.721-1.145a.267.267,0,0,0-.452-.285L32.082,21.2l-1.733.613-.1-2.678,1.127-.518a.2.2,0,0,0,.031.017l.747.24a.272.272,0,0,0,.082.013.267.267,0,0,0,.082-.522l-.232-.075,1.629-.748a.267.267,0,0,0-.223-.486l-2.8,1.288.864-1.371a.267.267,0,0,0-.452-.285l-.89,1.412-.1-2.635,2.411-1.636a.267.267,0,1,0-.3-.442l-1.154.784.072-.823a.267.267,0,1,0-.532-.047L30.5,14.553l-.408.277-.114-3.146L31,10.068a.267.267,0,0,0-.452-.285l-.6.953-.1-2.81a.267.267,0,0,0-.267-.258h0a.268.268,0,0,0-.267.257l-.1,2.826-.366-.58a.267.267,0,0,0-.452.285l.784,1.241-.021.574L28.9,12.1a.267.267,0,1,0-.3.441l.527.361-.071,1.931-2.141-1.453a.267.267,0,1,0-.3.442l.9.608-.993.167a.267.267,0,0,0,.044.531.256.256,0,0,0,.045,0l1.546-.259.882.6-.118,3.189-.326-.15c0-.007,0-.014-.007-.021l-.8-1.327a.267.267,0,1,0-.457.277l.41.677-2.3-1.058a.267.267,0,0,0-.223.486l1.75.8-.931.182a.267.267,0,0,0,.051.53.263.263,0,0,0,.052-.005l1.659-.325,1.076.495a.222.222,0,0,0,.032.007l-.1,2.661L26.85,21.2l-.655-1.083a.267.267,0,1,0-.457.277l.318.525-1.892-.669a.267.267,0,1,0-.178.5l2.26.8-2.05.384a.267.267,0,0,0,.049.53.283.283,0,0,0,.049,0l2.814-.527a.263.263,0,0,0,.1-.042l1.532.541a.214.214,0,0,0,.037.006l-.173,4.7a.267.267,0,0,0,.267.277h1.4a.267.267,0,0,0,.267-.277l-.173-4.773,1.347-.476a.263.263,0,0,0,.1.042l1.716.321a.284.284,0,0,0,.049,0,.267.267,0,0,0,.049-.53l-.951-.178,2.26-.8A.268.268,0,0,0,35.1,20.412Zm-5.953,6.471.428-11.622.13,3.607a.264.264,0,0,0,0,.219c0,.006.007.01.01.015L30,26.883Z" transform="translate(-62 -29.243)" fill="#fff"/>
    <path id="Caminho_2" data-name="Caminho 2" d="M16.2,6V20h-3V12.56L9.94,20H7.42L4.2,12.6V20h-3V6H4.08L8.7,16.1,13.32,6Zm5.32,11.32h5.92V20H18.6V6h8.66V8.68H21.52v2.96h4.34v2.64H21.52ZM40.56,20h-3.1l-2.98-4.66H32.46V20H29.54V6h4.9c3.14,0,5.18,1.9,5.18,4.76a4.21,4.21,0,0,1-2.48,4.04ZM32.46,8.68v4.14h1.8c1.44,0,2.44-.56,2.44-2.06,0-1.48-1-2.08-2.44-2.08Z" transform="translate(-24 -21.825)" fill="#fff"/>
    <path id="Caminho_3" data-name="Caminho 3" d="M12.62,20l-1.78-3.98H2.8L1.02,20H.4L6.66,6h.3l6.28,14h-.62ZM3.04,15.46H10.6L6.82,7ZM24.1,20l-6.36-6.98-2.32,2.44V20h-.58V6h.58v8.68L23.66,6h.76l-6.3,6.64L24.84,20H24.1ZM27.12,6V20h-.58V6Z" transform="translate(17 -21.825)" fill="#fff"/>
  </g>
</svg>
