<svg xmlns="http://www.w3.org/2000/svg" width="57.27" height="100" viewBox="0 0 57.27 100">
  <path id="Caminho_65" data-name="Caminho 65" d="M81,72.193a1.348,1.348,0,0,0-1.726-.824l-9.447,3.339,3.653-5.8a1.353,1.353,0,0,0-2.289-1.444l-5.482,8.7-8.777,3.1L56.44,65.705l5.708-2.623a.991.991,0,0,0,.157.088l3.783,1.216a1.377,1.377,0,0,0,.414.065,1.354,1.354,0,0,0,.414-2.642l-1.175-.378,8.249-3.79a1.354,1.354,0,0,0-1.132-2.46L58.675,61.7,63.05,54.76a1.353,1.353,0,0,0-2.289-1.444l-4.507,7.15-.482-13.343L67.98,38.839a1.354,1.354,0,1,0-1.52-2.24l-5.845,3.967L60.98,36.4a1.353,1.353,0,1,0-2.7-.236l-.564,6.365-2.068,1.4L55.074,28l5.163-8.18a1.354,1.354,0,0,0-2.29-1.444L54.9,23.2,54.384,8.974a1.353,1.353,0,0,0-1.352-1.3h0a1.356,1.356,0,0,0-1.354,1.3L51.15,23.28,49.3,20.343a1.353,1.353,0,0,0-2.289,1.444l3.967,6.285-.1,2.906-1.259-.862a1.354,1.354,0,0,0-1.53,2.233l2.671,1.829-.36,9.779L39.55,36.6a1.354,1.354,0,0,0-1.52,2.24l4.537,3.078-5.03.845a1.353,1.353,0,0,0,.222,2.688,1.3,1.3,0,0,0,.226-.019l7.827-1.313,4.464,3.029-.6,16.147-1.65-.759c-.018-.034-.018-.073-.038-.107L43.927,55.71a1.353,1.353,0,1,0-2.316,1.4l2.074,3.427L32.026,55.181a1.353,1.353,0,1,0-1.13,2.46l8.859,4.072-4.712.923a1.354,1.354,0,0,0,.259,2.683,1.334,1.334,0,0,0,.261-.026l8.4-1.646,5.448,2.5a1.124,1.124,0,0,0,.16.035l-.5,13.475-9.86-3.484L35.9,70.695a1.353,1.353,0,1,0-2.316,1.4l1.608,2.659-9.581-3.387a1.352,1.352,0,1,0-.9,2.55l11.445,4.045L25.774,79.908a1.353,1.353,0,0,0,.248,2.683,1.434,1.434,0,0,0,.25-.023L40.523,79.9a1.333,1.333,0,0,0,.509-.213l7.756,2.741a1.085,1.085,0,0,0,.185.031L48.1,106.265a1.353,1.353,0,0,0,1.352,1.4h7.108a1.353,1.353,0,0,0,1.352-1.4L57.033,82.1l6.82-2.409a1.333,1.333,0,0,0,.509.213l8.69,1.627a1.44,1.44,0,0,0,.25.023,1.354,1.354,0,0,0,.246-2.684l-4.818-.9,11.442-4.045A1.356,1.356,0,0,0,81,72.193ZM50.854,104.962l2.168-58.85.661,18.264a1.337,1.337,0,0,0-.007,1.111c.014.028.035.05.05.077l1.425,39.4Z" transform="translate(-23.807 -7.669)" fill="#fff"/>
</svg>
