<svg xmlns="http://www.w3.org/2000/svg" width="30.003" height="30.004" viewBox="0 0 30.003 30.004">
  <g id="undraw_male_avatar_323b" transform="translate(0 0)">
    <path id="Caminho_4" data-name="Caminho 4" d="M292,127a14.95,14.95,0,0,1-1.208,5.907l-.05.115a15.026,15.026,0,0,1-16.346,8.754l-.27-.05a14.87,14.87,0,0,1-2.714-.8q-.214-.086-.424-.178c-.1-.042-.192-.085-.287-.129A15,15,0,1,1,292,127Z" transform="translate(-262 -112)" fill="#6e72b7"/>
    <path id="Caminho_5" data-name="Caminho 5" d="M404.257,348.525l-.27-.05a61.684,61.684,0,0,0-.945-8.845,32.822,32.822,0,0,0-1.618-5.884,18.317,18.317,0,0,0-.846-1.857,9.63,9.63,0,0,0-2.688-3.324l.158-.216a9.282,9.282,0,0,1,2.406,2.755q.32.531.615,1.134.316.644.6,1.368.183.461.354.953a34.613,34.613,0,0,1,1.263,4.881q.115.606.219,1.241A62.962,62.962,0,0,1,404.257,348.525Z" transform="translate(-391.859 -318.748)" opacity="0.2"/>
    <path id="Caminho_6" data-name="Caminho 6" d="M404.357,602.026c-.1-.042-.192-.085-.287-.129a21.792,21.792,0,0,0-.575-3.444,11.3,11.3,0,0,0-.524-1.562,4.687,4.687,0,0,0-1.411-1.976l.158-.215a4.905,4.905,0,0,1,1.475,2.021,13.864,13.864,0,0,1,.884,3.114C404.215,600.621,404.3,601.379,404.357,602.026Z" transform="translate(-395.366 -573.277)" opacity="0.2"/>
    <circle id="Elipse_1" data-name="Elipse 1" cx="1.335" cy="1.335" r="1.335" transform="translate(3.203 7.141)" opacity="0.2"/>
    <circle id="Elipse_2" data-name="Elipse 2" cx="1.335" cy="1.335" r="1.335" transform="translate(3.633 18.636)" opacity="0.2"/>
    <path id="Caminho_7" data-name="Caminho 7" d="M482.13,294.5a5.932,5.932,0,0,0,.342,3.044,5.406,5.406,0,0,0,1.026-5.786A5.932,5.932,0,0,0,482.13,294.5Z" transform="translate(-472.289 -283.778)" opacity="0.2"/>
    <path id="Caminho_8" data-name="Caminho 8" d="M330.68,397.389a5.962,5.962,0,0,0,3.055.2,5.439,5.439,0,0,0-5.518-2.018A5.961,5.961,0,0,0,330.68,397.389Z" transform="translate(-325.278 -382.877)" opacity="0.2"/>
    <path id="Caminho_9" data-name="Caminho 9" d="M340.753,639.045a4.158,4.158,0,0,0,2.143.136,3.789,3.789,0,0,0-3.868-1.414A4.158,4.158,0,0,0,340.753,639.045Z" transform="translate(-335.609 -614.354)" opacity="0.2"/>
    <circle id="Elipse_3" data-name="Elipse 3" cx="5.848" cy="5.848" r="5.848" transform="translate(9.122 6.627)" fill="#d0cde1"/>
    <path id="Caminho_10" data-name="Caminho 10" d="M547.833,454.615s.731,3.472.731,3.838,3.472,2.01,3.472,2.01l3.107-.548,1.1-3.29s-1.828-2.741-1.828-3.838Z" transform="translate(-535.147 -437.662)" fill="#d0cde1"/>
    <path id="Caminho_11" data-name="Caminho 11" d="M410.476,520.2l-.05.115a15.026,15.026,0,0,1-16.347,8.754l-.27-.05a14.87,14.87,0,0,1-2.714-.8q-.214-.086-.424-.178c-.1-.042-.192-.085-.287-.129a14.986,14.986,0,0,1-2.452-1.433l-.693-2.011.39-.3.8-.612.855-.653.222-.17,3.356-2.562.248-.189,1.744-1.331h0s1.886,3.073,4.628,2.16a3.78,3.78,0,0,0,2.682-3.534Z" transform="translate(-381.681 -499.293)" fill="#2f2e41"/>
    <path id="Caminho_12" data-name="Caminho 12" d="M455.42,217.288s1.857-4.023,5.416-3.095,5.57,2.321,5.725,3.714a19.871,19.871,0,0,1-.077,3.482s-.387-2.863-2.863-2.244a22.082,22.082,0,0,1-6.344.155l-.619,5.57s-.7-1.006-1.47-.387S452.945,218.526,455.42,217.288Z" transform="translate(-445.522 -209.525)" fill="#2f2e41"/>
    <path id="Caminho_13" data-name="Caminho 13" d="M375.118,683.021q-.214-.086-.424-.178c-.1-.042-.192-.085-.287-.129a15.038,15.038,0,0,1-3.887-2.605,5.26,5.26,0,0,1,.742-.838H374l.411,1.382Z" transform="translate(-365.704 -654.093)" fill="#2f2e41"/>
    <path id="Caminho_14" data-name="Caminho 14" d="M853.067,576.32l2.352.416a15,15,0,0,1-2.519,3.931Z" transform="translate(-826.674 -555.712)" fill="#2f2e41"/>
  </g>
</svg>
