<svg xmlns="http://www.w3.org/2000/svg" width="180" height="108" viewBox="0 0 180 108">
  <g id="undraw_video_files_fu10" transform="translate(0)">
    <path id="Caminho_132" data-name="Caminho 132" d="M527.812,230.875a2.738,2.738,0,0,1-2.723,2.752H405.263a2.738,2.738,0,0,1-2.723-2.752V149.027a2.738,2.738,0,0,1,2.723-2.752H525.088a2.738,2.738,0,0,1,2.723,2.752h0Z" transform="translate(-347.812 -146.275)" fill="#e6e6e6"/>
    <path id="Caminho_133" data-name="Caminho 133" d="M533.283,236.3a2.661,2.661,0,0,1-2.661,2.661H413.581a2.661,2.661,0,0,1-2.661-2.661v-79.13a2.661,2.661,0,0,1,2.661-2.661H530.627a2.661,2.661,0,0,1,2.656,2.661Z" transform="translate(-354.696 -153.036)" fill="#fff"/>
    <path id="c6fe725a-3b03-4a96-90af-cfbd2676500a" d="M343.16,27.48H453.137a1.579,1.579,0,0,1,1.579,1.579v74.115a1.579,1.579,0,0,1-1.579,1.579H343.16a1.579,1.579,0,0,1-1.579-1.579V29.059A1.579,1.579,0,0,1,343.16,27.48Z" transform="translate(-280.681 -22.576)" fill="#e6e6e6"/>
    <path id="Caminho_134" data-name="Caminho 134" d="M350.96,37.44H458.033a1.579,1.579,0,0,1,1.579,1.579v70.16a1.579,1.579,0,0,1-1.579,1.579H350.96a1.579,1.579,0,0,1-1.579-1.579V39.019A1.579,1.579,0,0,1,350.96,37.44Z" transform="translate(-287.089 -30.758)" fill="#fff"/>
    <path id="Caminho_135" data-name="Caminho 135" d="M828.871,345.605a3.011,3.011,0,0,1-1.223-.261,1.485,1.485,0,0,1-.255-.145l-7.782-5.478h0a3.01,3.01,0,0,1-1.278-2.461v-7.47a3.01,3.01,0,0,1,1.277-2.461l7.782-5.478a1.49,1.49,0,0,1,.255-.145,3.011,3.011,0,0,1,4.234,2.751v18.136a3.011,3.011,0,0,1-3.011,3.011Z" transform="translate(-689.384 -290.337)" fill="#3f3d56"/>
    <path id="Caminho_136" data-name="Caminho 136" d="M642.969,340.309h-21.7c-4.428,0-8.016-2.866-8.021-6.4v-14.3c0-3.532,3.593-6.394,8.021-6.4h21.76c4.4,0,7.959,2.846,7.964,6.353v14.346C650.986,337.443,647.4,340.306,642.969,340.309Z" transform="translate(-520.89 -283.571)" fill="#3f3d56"/>
    <circle id="Elipse_4" data-name="Elipse 4" cx="6.455" cy="6.455" r="6.455" transform="translate(154.263 62.31)" fill="#e6e6e6"/>
    <path id="Caminho_137" data-name="Caminho 137" d="M990.6,518.684l-5.145-2.971a.134.134,0,0,0-.2.116v5.941a.134.134,0,0,0,.2.116l5.145-2.971a.134.134,0,0,0,0-.231l-5.145-2.971a.134.134,0,0,0-.2.116v5.941a.134.134,0,0,0,.2.116l5.145-2.971a.134.134,0,0,0,0-.231Z" transform="translate(-826.527 -450.031)" fill="#fff"/>
    <path id="Caminho_138" data-name="Caminho 138" d="M372.749,285.476a2.73,2.73,0,0,1-2.722,2.739H250.262a2.731,2.731,0,0,1-2.722-2.739V204.014a2.73,2.73,0,0,1,2.722-2.739H370.027a2.73,2.73,0,0,1,2.722,2.739h0Z" transform="translate(-220.412 -191.459)" fill="#e6e6e6"/>
    <path id="Caminho_139" data-name="Caminho 139" d="M378.22,290.9a2.654,2.654,0,0,1-2.66,2.648H258.58a2.654,2.654,0,0,1-2.66-2.648V212.153a2.654,2.654,0,0,1,2.66-2.648H375.566a2.654,2.654,0,0,1,2.654,2.648Z" transform="translate(-227.297 -198.22)" fill="#fff"/>
    <path id="c6fe725a-3b03-4a96-90af-cfbd2676500a-2" data-name="c6fe725a-3b03-4a96-90af-cfbd2676500a" d="M188.159,82.48H298.075a1.579,1.579,0,0,1,1.579,1.579v74.115a1.579,1.579,0,0,1-1.579,1.579H188.159a1.579,1.579,0,0,1-1.579-1.579V84.059A1.579,1.579,0,0,1,188.159,82.48Z" transform="translate(-153.281 -67.76)" fill="#e6e6e6"/>
    <path id="Caminho_140" data-name="Caminho 140" d="M195.959,92.44H302.971a1.579,1.579,0,0,1,1.579,1.579v70.16a1.579,1.579,0,0,1-1.579,1.579H195.959a1.579,1.579,0,0,1-1.579-1.579V94.019A1.579,1.579,0,0,1,195.959,92.44Z" transform="translate(-159.689 -76.136)" fill="#fff"/>
    <path id="Caminho_141" data-name="Caminho 141" d="M673.871,400.605a3.01,3.01,0,0,1-1.223-.261,1.486,1.486,0,0,1-.255-.145l-7.782-5.478h0a3.011,3.011,0,0,1-1.278-2.461v-7.47a3.011,3.011,0,0,1,1.277-2.461l7.782-5.478a1.488,1.488,0,0,1,.255-.145,3.011,3.011,0,0,1,4.234,2.751v18.136a3.011,3.011,0,0,1-3.011,3.011Z" transform="translate(-562.037 -335.569)" fill="#3f3d56"/>
    <path id="Caminho_142" data-name="Caminho 142" d="M487.969,395.309h-21.7c-4.428,0-8.016-2.866-8.021-6.4v-14.3c0-3.532,3.593-6.394,8.021-6.4h21.76c4.4,0,7.959,2.846,7.964,6.353v14.346C495.986,392.443,492.4,395.306,487.969,395.309Z" transform="translate(-393.541 -328.804)" fill="#3f3d56"/>
    <circle id="Elipse_5" data-name="Elipse 5" cx="6.455" cy="6.455" r="6.455" transform="translate(126.615 72.084)" fill="#e6e6e6"/>
    <path id="Caminho_143" data-name="Caminho 143" d="M835.6,573.684l-5.145-2.971a.134.134,0,0,0-.2.116v5.941a.134.134,0,0,0,.2.116l5.145-2.971a.134.134,0,0,0,0-.231l-5.145-2.971a.134.134,0,0,0-.2.116v5.941a.134.134,0,0,0,.2.116l5.145-2.971a.134.134,0,0,0,0-.231Z" transform="translate(-699.175 -495.254)" fill="#fff"/>
    <path id="Caminho_144" data-name="Caminho 144" d="M220.812,348.875a2.738,2.738,0,0,1-2.723,2.752H98.263a2.738,2.738,0,0,1-2.723-2.752V267.027a2.738,2.738,0,0,1,2.723-2.752H218.088a2.738,2.738,0,0,1,2.723,2.752h0Z" transform="translate(-95.54 -243.627)" fill="#e6e6e6"/>
    <path id="Caminho_145" data-name="Caminho 145" d="M226.283,354.3a2.661,2.661,0,0,1-2.661,2.661H106.581a2.661,2.661,0,0,1-2.661-2.661v-79.13a2.661,2.661,0,0,1,2.661-2.661H223.627a2.661,2.661,0,0,1,2.656,2.661Z" transform="translate(-102.424 -250.389)" fill="#fff"/>
    <path id="c6fe725a-3b03-4a96-90af-cfbd2676500a-3" data-name="c6fe725a-3b03-4a96-90af-cfbd2676500a" d="M36.16,145.48H146.137a1.579,1.579,0,0,1,1.579,1.579v74.115a1.579,1.579,0,0,1-1.579,1.579H36.16a1.579,1.579,0,0,1-1.579-1.579V147.059A1.579,1.579,0,0,1,36.16,145.48Z" transform="translate(-28.409 -119.928)" fill="#e6e6e6"/>
    <path id="Caminho_146" data-name="Caminho 146" d="M43.96,155.44H151.033a1.579,1.579,0,0,1,1.579,1.579v70.16a1.579,1.579,0,0,1-1.579,1.579H43.96a1.579,1.579,0,0,1-1.579-1.579v-70.16A1.579,1.579,0,0,1,43.96,155.44Z" transform="translate(-34.817 -128.11)" fill="#fff"/>
    <path id="Caminho_147" data-name="Caminho 147" d="M521.871,463.605a3.01,3.01,0,0,1-1.223-.261,1.485,1.485,0,0,1-.255-.145l-7.782-5.478h0a3.01,3.01,0,0,1-1.278-2.461v-7.47a3.01,3.01,0,0,1,1.277-2.461l7.782-5.478a1.485,1.485,0,0,1,.255-.145,3.011,3.011,0,0,1,4.234,2.751v18.136a3.011,3.011,0,0,1-3.011,3.011Z" transform="translate(-437.154 -387.381)" fill="#3b67f2"/>
    <path id="Caminho_148" data-name="Caminho 148" d="M335.969,458.309h-21.7c-4.428,0-8.016-2.866-8.021-6.4v-14.3c0-3.532,3.593-6.394,8.021-6.4h21.76c4.4,0,7.959,2.846,7.964,6.353v14.346C343.985,455.443,340.4,458.306,335.969,458.309Z" transform="translate(-268.657 -380.618)" fill="#3b67f2"/>
    <circle id="Elipse_6" data-name="Elipse 6" cx="6.455" cy="6.455" r="6.455" transform="translate(99.498 83.228)" fill="#3f3d56"/>
    <path id="Caminho_149" data-name="Caminho 149" d="M683.6,636.684l-5.145-2.971a.134.134,0,0,0-.2.116v5.941a.134.134,0,0,0,.2.116l5.145-2.971a.133.133,0,0,0,0-.231l-5.145-2.971a.134.134,0,0,0-.2.116v5.941a.134.134,0,0,0,.2.116l5.145-2.971a.134.134,0,0,0,0-.231Z" transform="translate(-574.293 -547.117)" fill="#fff"/>
  </g>
</svg>
